<svg xmlns="http://www.w3.org/2000/svg" xmlns:xlink="http://www.w3.org/1999/xlink" width="500" zoomAndPan="magnify" viewBox="0 0 375 374.999991" height="500" preserveAspectRatio="xMidYMid meet" version="1.0"><defs><g/><clipPath id="6ebc40588b"><path d="M 92 88 L 228.484375 88 L 228.484375 225 L 92 225 Z M 92 88 " clip-rule="nonzero"/></clipPath><clipPath id="10e4ad1278"><path d="M 157.421875 150 L 294 150 L 294 287 L 157.421875 287 Z M 157.421875 150 " clip-rule="nonzero"/></clipPath></defs><rect x="-37.5" width="450" fill="#ffffff" y="-37.499999" height="449.999989" fill-opacity="1"/><rect x="-37.5" width="450" fill="#000000" y="-37.499999" height="449.999989" fill-opacity="1"/><g fill="#d9d9d9" fill-opacity="1"><g transform="translate(114.430273, 234.735198)"><g><path d="M 20.15625 1.578125 C 14.09375 1.578125 9.546875 0.394531 6.515625 -1.96875 C 3.484375 -4.34375 1.96875 -7.375 1.96875 -11.0625 C 1.96875 -13.519531 2.671875 -15.5625 4.078125 -17.1875 C 5.484375 -18.820312 7.460938 -19.640625 10.015625 -19.640625 C 12.210938 -19.640625 13.925781 -18.9375 15.15625 -17.53125 C 16.382812 -16.125 17 -14.273438 17 -11.984375 C 17 -10.234375 16.554688 -8.804688 15.671875 -7.703125 C 14.796875 -6.609375 13.875 -5.882812 12.90625 -5.53125 L 12.90625 -5.140625 C 13.789062 -4.878906 14.847656 -4.660156 16.078125 -4.484375 C 17.304688 -4.304688 18.664062 -4.21875 20.15625 -4.21875 C 28.769531 -4.21875 33.078125 -9.441406 33.078125 -19.890625 L 33.078125 -85.90625 L 20.5625 -85.90625 L 20.5625 -91.96875 L 54.28125 -91.96875 L 54.28125 -85.90625 L 44.40625 -85.90625 L 44.40625 -20.953125 C 44.40625 -13.398438 42.273438 -7.753906 38.015625 -4.015625 C 33.753906 -0.285156 27.800781 1.578125 20.15625 1.578125 Z M 20.15625 1.578125 "/></g></g></g><g fill="#d9d9d9" fill-opacity="1"><g transform="translate(174.64718, 234.735198)"><g><path d="M 24.765625 -6.0625 L 37.296875 -6.0625 L 37.296875 -85.515625 L 14.09375 -85.515625 L 14.09375 -69.828125 L 4.609375 -69.828125 L 4.609375 -91.96875 L 81.296875 -91.96875 L 81.296875 -69.828125 L 71.8125 -69.828125 L 71.8125 -85.515625 L 48.625 -85.515625 L 48.625 -6.0625 L 61.140625 -6.0625 L 61.140625 0 L 24.765625 0 Z M 24.765625 -6.0625 "/></g></g></g><g clip-path="url(#6ebc40588b)"><path fill="#e10909" d="M 93.207031 225.003906 C 87.625 153.621094 152.894531 75.066406 228.40625 90.164062 L 228.40625 91.507812 C 159.3125 104.214844 97.851562 150.605469 94.554688 225.003906 Z M 93.207031 225.003906 " fill-opacity="1" fill-rule="nonzero"/></g><g clip-path="url(#10e4ad1278)"><path fill="#e10909" d="M 292.699219 149.996094 C 298.28125 221.378906 233.011719 299.933594 157.5 284.835938 L 157.5 283.492188 C 226.59375 270.785156 288.054688 224.394531 291.355469 149.996094 Z M 292.699219 149.996094 " fill-opacity="1" fill-rule="nonzero"/></g></svg>