<?xml version="1.0" encoding="UTF-8"?>
<!DOCTYPE svg PUBLIC "-//W3C//DTD SVG 1.1//EN" "http://www.w3.org/Graphics/SVG/1.1/DTD/svg11.dtd">
<svg xmlns="http://www.w3.org/2000/svg" version="1.1" width="500px" height="500px" style="shape-rendering:geometricPrecision; text-rendering:geometricPrecision; image-rendering:optimizeQuality; fill-rule:evenodd; clip-rule:evenodd" xmlns:xlink="http://www.w3.org/1999/xlink">
<g><path style="opacity:0.93" fill="#e10909" d="M 272.5,116.5 C 282.571,116.474 292.571,117.307 302.5,119C 303.973,119.71 304.64,120.876 304.5,122.5C 247.836,131.739 200.669,157.739 163,200.5C 140.279,229.487 128.112,262.487 126.5,299.5C 125.167,299.5 123.833,299.5 122.5,299.5C 121.444,238.457 144.111,188.29 190.5,149C 214.562,129.815 241.895,118.981 272.5,116.5 Z"/></g>
<g><path style="opacity:0.929" fill="#d8d9d8" d="M 178.5,189.5 C 193.833,189.5 209.167,189.5 224.5,189.5C 224.5,192.5 224.5,195.5 224.5,198.5C 220.167,198.5 215.833,198.5 211.5,198.5C 211.971,231.216 211.471,263.883 210,296.5C 208.037,302.799 204.203,307.632 198.5,311C 185.261,317.292 172.261,316.959 159.5,310C 154.798,305.078 153.298,299.245 155,292.5C 160.579,284.352 166.913,283.686 174,290.5C 176.498,296.319 175.331,301.153 170.5,305C 176.626,307.098 182.626,306.764 188.5,304C 191.106,302.062 192.939,299.562 194,296.5C 195.471,263.883 195.971,231.216 195.5,198.5C 189.833,198.5 184.167,198.5 178.5,198.5C 178.5,195.5 178.5,192.5 178.5,189.5 Z"/></g>
<g><path style="opacity:0.936" fill="#d8d9d8" d="M 237.5,189.5 C 272.167,189.5 306.833,189.5 341.5,189.5C 341.5,199.5 341.5,209.5 341.5,219.5C 336.833,219.5 332.167,219.5 327.5,219.5C 327.5,212.5 327.5,205.5 327.5,198.5C 317.5,198.5 307.5,198.5 297.5,198.5C 297.5,233.5 297.5,268.5 297.5,303.5C 303.167,303.5 308.833,303.5 314.5,303.5C 314.5,306.5 314.5,309.5 314.5,312.5C 297.833,312.5 281.167,312.5 264.5,312.5C 264.5,309.5 264.5,306.5 264.5,303.5C 270.167,303.5 275.833,303.5 281.5,303.5C 281.5,268.5 281.5,233.5 281.5,198.5C 271.5,198.5 261.5,198.5 251.5,198.5C 251.5,205.5 251.5,212.5 251.5,219.5C 246.833,219.5 242.167,219.5 237.5,219.5C 237.5,209.5 237.5,199.5 237.5,189.5 Z"/></g>
<g><path style="opacity:0.922" fill="#e10909" d="M 386.5,199.5 C 387.833,199.5 389.167,199.5 390.5,199.5C 391.809,258.037 370.809,306.87 327.5,346C 293.78,375.183 254.78,386.516 210.5,380C 209.663,378.989 209.33,377.822 209.5,376.5C 265.746,366.971 312.58,340.971 350,298.5C 372.721,269.513 384.888,236.513 386.5,199.5 Z"/></g>
</svg>
